# xmcd
# Copyright (C) 1995-1998 Ti Kan
#
# Track frame offsets:
#       150
#       21901
#       44326
#       60268
#       80721
#       98219
#       114636
#       143242
#       165998
#       184722
#       216084
#       242820
#       261810
#       276821
#       294171
#
# Disc length: 4092 seconds
#
# Revision: 0
# Processed by: cddbd v1.5.2PL0 Copyright (c) Steve Scherf et al.
# Submitted via: CD-Transfer v1.0
#
DISCID=d10ffa0f
DTITLE=Various Artist - Shapes Compilation
DYEAR=06
DGENRE=
TTITLE0=Quantic - An Announcement To Answer
TTITLE1=Alice Russel - A Fly In The Hand
TTITLE2=Kinny And Horne - Forgetting To Remember
TTITLE3=Alice Russel - Hurry On Now
TTITLE4=Quantic And Nickodemus - Mi Swing Es Tropical
TTITLE5=The Bamboos - Step It Up
TTITLE6=The Nostalgia 77 Octet - Freedom
TTITLE7=Diesler - A Little Something
TTITLE8=Nirobi And Barakas - Bungee Jump Against Racism
TTITLE9=Tm Juke - Playground Games
TTITLE10=Polar Pair V Maddslinky - Over My Head
TTITLE11=The Broken Keys - Sling Shot (Part 1)
TTITLE12=Jumbonics - People People
TTITLE13=Dirty Diggers Presents The Sticky Kids - Don't Blame The Parents
TTITLE14=Life - Come On
EXTD=
EXTT0=
EXTT1=
EXTT2=
EXTT3=
EXTT4=
EXTT5=
EXTT6=
EXTT7=
EXTT8=
EXTT9=
EXTT10=
EXTT11=
EXTT12=
EXTT13=
EXTT14=
PLAYORDER=
